<svg xmlns="http://www.w3.org/2000/svg" enable-background="new 0 0 47.5 47.5" viewBox="0 0 47.5 47.5"><defs><clipPath id="a" clipPathUnits="userSpaceOnUse"><path d="M 0,38 38,38 38,0 0,0 0,38 Z"/></clipPath></defs><g clip-path="url(#a)" transform="matrix(1.25 0 0 -1.25 0 47.5)"><path fill="#d99e82" d="M 0,0 C -0.314,0 -0.628,0.12 -0.868,0.359 L -31.509,31 c -0.48,0.48 -0.48,1.257 0,1.737 0.479,0.479 1.257,0.479 1.736,0 L 0.868,2.096 c 0.48,-0.48 0.48,-1.257 0,-1.737 C 0.628,0.12 0.314,0 0,0" transform="translate(34.875 1.772)"/><path fill="#fcb1e3" d="m 0,0 c 0,-3.729 -3.023,-6.752 -6.752,-6.752 -3.729,0 -6.752,3.023 -6.752,6.752 0,3.729 3.023,6.752 6.752,6.752 C -3.023,6.752 0,3.729 0,0" transform="translate(16.254 28.373)"/><path fill="#ffd983" d="m 0,0 c 0,-3.729 -3.023,-6.752 -6.752,-6.752 -3.73,0 -6.753,3.023 -6.753,6.752 0,3.729 3.023,6.752 6.753,6.752 C -3.023,6.752 0,3.729 0,0" transform="translate(23.621 21.006)"/><path fill="#a6d388" d="m 0,0 c 0,-3.729 -3.024,-6.753 -6.753,-6.753 -3.728,0 -6.752,3.024 -6.752,6.753 0,3.729 3.024,6.752 6.752,6.752 C -3.024,6.752 0,3.729 0,0" transform="translate(30.987 13.64)"/><path fill="#d99e82" d="m 0,0 c -0.314,0 -0.628,0.12 -0.868,0.359 l -7.52,7.52 c -0.479,0.479 -0.479,1.257 0,1.736 0.481,0.479 1.256,0.479 1.737,0 L 0.868,2.096 c 0.48,-0.48 0.48,-1.257 0,-1.737 C 0.628,0.12 0.314,0 0,0" transform="translate(34.875 1.772)"/></g></svg>